<mxfile host="app.diagrams.net" modified="2024-01-26T05:59:23.493Z" agent="Mozilla/5.0 (X11; Linux x86_64) AppleWebKit/537.36 (KHTML, like Gecko) Chrome/113.0.0.0 Safari/537.36 OPR/99.0.0.0" version="23.0.0" etag="lnFvHthBnuLym0D0Xrr3" type="github">
  <diagram name="Page-1" id="JF9I5gTvsQTeRJAIGvQs">
    <mxGraphModel>
      <root>
        <mxCell id="0" />
        <mxCell id="1" parent="0" />
      </root>
    </mxGraphModel>
  </diagram>
</mxfile>
